<?xml version="1.0" encoding="UTF-8" standalone="no"?>
<svg
   height="256"
   width="256"
   viewBox="0 0 256 256"
   version="1.1"
   id="svg5"
   sodipodi:docname="close.svg"
   xmlns:inkscape="http://www.inkscape.org/namespaces/inkscape"
   xmlns:sodipodi="http://sodipodi.sourceforge.net/DTD/sodipodi-0.dtd"
   xmlns="http://www.w3.org/2000/svg"
   xmlns:svg="http://www.w3.org/2000/svg">
  <defs
     id="defs9" />
  <sodipodi:namedview
     id="namedview7"
     pagecolor="#ffffff"
     bordercolor="#000000"
     borderopacity="0.25"
     inkscape:showpageshadow="2"
     inkscape:pageopacity="0.0"
     inkscape:pagecheckerboard="0"
     inkscape:deskcolor="#d1d1d1"
     showgrid="false" />
  <g
     id="g3">
    <path
       id="path1"
       style="fill:#006647;fill-opacity:1;stroke-width:4.70107"
       d="m 71.771305,48.465701 c -10.161067,0.341937 -19.4008,7.888508 -22.322802,17.534381 -1.150657,3.655709 -1.231358,7.583257 -0.663672,11.350324 1.141023,6.577884 5.335475,12.195635 10.244217,16.52498 7.138807,7.050634 14.197742,14.185984 21.30583,21.269194 4.296437,4.2967 8.592874,8.59341 12.889312,12.89013 -13.09408,13.18878 -26.403373,26.1612 -39.319919,39.52329 -5.275669,6.19334 -6.659781,15.14029 -4.282444,22.82549 1.495459,5.01534 4.672291,9.5073 8.961162,12.51915 8.305834,6.32 20.650445,6.08926 29.018008,0.009 2.480228,-1.71057 4.328728,-4.1244 6.515222,-6.16548 11.304871,-11.30422 22.609741,-22.60843 33.914621,-33.91265 13.19162,13.10134 26.16832,26.41802 39.53403,39.3411 6.24978,5.29951 15.27814,6.6555 23.00072,4.20207 5.07089,-1.55718 9.60894,-4.83225 12.565,-9.25141 6.10399,-8.27554 5.76678,-20.38926 -0.20744,-28.63913 -1.71671,-2.48537 -4.13105,-4.34379 -6.17911,-6.53431 -11.30502,-11.30832 -22.61004,-22.61664 -33.91508,-33.92497 13.11213,-13.21915 26.47188,-26.19401 39.38785,-39.604674 5.26785,-6.234392 6.59915,-15.229384 4.15577,-22.91956 -1.55398,-5.072833 -4.82912,-9.610167 -9.24513,-12.571711 -8.27967,-6.108844 -20.39671,-5.768774 -28.65224,0.205768 -2.48694,1.71508 -4.34659,4.128125 -6.53614,6.177281 C 150.63348,70.618607 139.3279,81.923532 128.02232,93.228456 114.84388,80.146167 101.88892,66.838988 88.533766,53.937507 83.870961,50.102287 77.78307,48.207278 71.771305,48.465701 Z m 1.345596,18.193222 c 3.061447,0.09728 5.375648,2.390035 7.309177,4.51603 1.622485,1.832097 3.29975,3.618023 5.143594,5.228089 12.484697,12.366219 24.723668,24.984418 37.383048,37.168508 2.73231,1.99099 6.54133,1.93626 9.43853,0.33014 1.77656,-0.89472 3.19213,-2.32813 4.43754,-3.84603 14.23826,-14.099434 28.20864,-28.477649 42.62058,-42.400048 3.5581,-2.450537 9.36233,-0.110191 9.96059,4.240693 0.34591,2.168912 -0.52132,4.336628 -1.96665,5.934449 -2.23236,2.56275 -5.03836,4.557984 -7.21594,7.174491 -12.55048,12.677601 -25.36708,25.097005 -37.73737,37.947245 -2.00058,2.72924 -1.94751,6.54494 -0.3368,9.44263 0.89952,1.77419 2.3303,3.19098 3.84829,4.4374 14.11055,14.23038 28.46188,28.22311 42.40986,42.6118 2.62648,3.47169 0.12535,9.17271 -4.08838,9.87937 -2.12581,0.32899 -4.31754,-0.36207 -5.93489,-1.76699 -2.6618,-2.21982 -4.66434,-5.11323 -7.33204,-7.32973 -12.66662,-12.54282 -25.08353,-25.33916 -37.92105,-37.70429 -2.64748,-1.96498 -6.35047,-1.98783 -9.21292,-0.47982 -2.02187,0.97104 -3.63803,2.57737 -5.03192,4.2967 -14.12534,13.99006 -27.983209,28.25414 -42.286269,42.0616 -3.633552,2.55406 -9.578161,-0.042 -10.01016,-4.50732 -0.290826,-2.48364 1.054236,-4.78697 2.762669,-6.47607 2.131994,-2.19541 4.571055,-4.08384 6.546274,-6.43304 12.530306,-12.65227 25.316606,-25.05364 37.665016,-37.88042 1.991,-2.73231 1.93626,-6.54134 0.33014,-9.43854 -0.89421,-1.77506 -2.32548,-3.19095 -3.84378,-4.43339 C 95.922699,104.94544 81.471009,90.967175 67.547149,76.478657 c -2.068211,-2.970638 -0.695317,-7.388484 2.394774,-9.066511 0.956468,-0.547356 2.074905,-0.807782 3.174978,-0.753223 z" />
  </g>
</svg>
